<?xml version="1.0" encoding="utf-8"?>
<!-- Generator: Adobe Illustrator 24.0.1, SVG Export Plug-In . SVG Version: 6.00 Build 0)  -->
<svg version="1.1" id="Layer_1" xmlns="http://www.w3.org/2000/svg" xmlns:xlink="http://www.w3.org/1999/xlink" x="0px" y="0px"
	 viewBox="0 0 328.82 127.56" style="enable-background:new 0 0 328.82 127.56;" xml:space="preserve">
<style type="text/css">
	.st0{fill:#1E407C;}
	.st1{fill:#4DAEE0;}
</style>
<g>
	<g>
		<path class="st0" d="M156.97,67.13c4.63-2.43,7.24-6.75,7.24-12.18c0-8.39-6.83-14.97-15.56-14.97H137.9
			c-1.87,0-3.34,1.47-3.34,3.34v35.3c0,1.84,1.5,3.34,3.34,3.34c1.84,0,3.4-1.53,3.4-3.34v-9.41h6.93c0.68,0,1.32-0.03,1.92-0.08
			l8.21,11.47c0.7,0.93,1.72,1.42,2.78,1.42c0.7,0,1.42-0.22,2.05-0.66l0.08-0.06c1.45-1.12,1.65-3.07,0.47-4.78L156.97,67.13z
			 M157.46,54.95c0,4.53-3.65,7.7-8.88,7.7h-7.29V46.54h7.46C154.21,46.54,157.46,50.82,157.46,54.95z"/>
		<path class="st0" d="M207.08,71.69c-1.17-1.33-3.24-1.45-4.72-0.26l-0.16,0.14c-2.79,2.74-6.38,4.18-10.39,4.18
			c-7.99,0-14.49-6.61-14.49-14.73c0-8.32,6.39-14.84,14.55-14.84c3.8,0,7.5,1.57,10.39,4.42l0.27,0.22
			c1.58,1.1,3.55,0.88,4.71-0.58c1.05-1.4,0.8-3.36-0.56-4.53c-4.12-4.02-9.28-6.15-14.93-6.15c-11.67,0-21.17,9.63-21.17,21.46
			c0,11.8,9.52,21.41,21.23,21.41c5.71,0,10.86-2.1,14.9-6.06c1.3-1.19,1.52-3.07,0.51-4.5L207.08,71.69z"/>
	</g>
	<g>
		<path class="st1" d="M220.2,81.96c-1.84,0-3.34-1.5-3.34-3.34v-35.3c0-1.87,1.47-3.34,3.34-3.34c1.87,0,3.4,1.5,3.4,3.34v35.3
			C223.6,80.43,222.04,81.96,220.2,81.96z"/>
	</g>
	<g>
		<path class="st1" d="M264.36,82.03c-1.35,0-2.6-0.87-3.08-2.17l-3.15-7.46h-17.94l-3.18,7.51c-0.02,0.04-0.04,0.08-0.06,0.12
			c-0.66,1.32-1.92,2.05-3.33,1.92c-1.02-0.06-1.98-0.62-2.55-1.52c-0.58-0.92-0.68-2.11-0.25-3.18l14.9-34.88
			c0.7-1.54,1.93-2.4,3.41-2.4c1.13,0,2.62,0.43,3.37,2.45l14.91,34.84c0.44,0.94,0.4,2.1-0.13,3.04c-0.52,0.94-1.45,1.56-2.54,1.7
			c-0.01,0-0.02,0-0.02,0C264.6,82.02,264.48,82.03,264.36,82.03z M264.48,79.92L264.48,79.92L264.48,79.92z M263.56,78.94
			c0,0.01,0.01,0.02,0.02,0.04L263.56,78.94z M242.9,65.84h12.45l-6.23-14.8L242.9,65.84z"/>
	</g>
	<g>
		<path class="st1" d="M309.59,81.96c-1.81,0-3.4-1.56-3.4-3.34v-26L296.12,65.4c-0.05,0.06-0.11,0.13-0.16,0.19
			c-0.88,0.88-1.78,1.04-2.39,1.03c-0.61-0.01-1.51-0.23-2.36-1.16c-0.03-0.03-0.06-0.07-0.09-0.11l-10.13-12.76v26.03
			c0,1.81-1.56,3.34-3.4,3.34c-1.84,0-3.34-1.5-3.34-3.34v-35.3c0-1.87,1.47-3.34,3.34-3.34c1.21,0,1.99,0.53,2.43,0.97
			c0.06,0.06,0.11,0.11,0.16,0.18l13.47,16.84l13.41-16.83c0.05-0.06,0.1-0.12,0.16-0.18c0.63-0.63,1.47-0.97,2.37-0.97
			c1.91,0,3.4,1.47,3.4,3.34v35.3C312.98,80.43,311.43,81.96,309.59,81.96z"/>
	</g>
</g>
<g>
	<g>
		<path class="st1" d="M80.62,102.51c-0.46,0-0.91-0.11-1.33-0.31c-20.75-9.19-27.47-18.33-31.16-29.23
			c-1.92-5.67-3.03-16.78-3.52-22.91c-0.13-1.65,1.1-3.1,2.75-3.23c1.65-0.14,3.1,1.1,3.23,2.75c0.8,9.95,1.97,17.77,3.23,21.46
			c2.64,7.79,6.91,16.14,26.82,25.18c19.91-9.04,24.17-17.39,26.81-25.18c2.47-7.28,4.05-28.16,4.05-39.34c0-1.19,0.04-4,0.07-6.22
			H63.26l0.35,17.13c0,6.61,1.1,19.88,2.46,23.88c1.44,4.24,3.77,8.79,14.55,13.8c10.79-5.01,13.11-9.56,14.55-13.8
			c1.39-4.09,2.31-16.35,2.31-22.67c0-0.48,0.01-1.43,0.02-2.41H73.95c-1.66,0-3-1.34-3-3s1.34-3,3-3h26.6c0.8,0,1.57,0.32,2.14,0.9
			c0.56,0.57,0.87,1.35,0.86,2.15c0,0-0.07,4.16-0.07,5.36c0,5.7-0.79,19.2-2.63,24.6c-2.28,6.71-6.38,12.33-19.02,17.91
			c-0.03,0.01-0.07,0.03-0.1,0.04c-0.03,0.01-0.07,0.03-0.1,0.04c-0.72,0.26-1.52,0.23-2.23-0.08
			c-12.64-5.58-16.74-11.2-19.02-17.91c-1.8-5.29-2.77-19.78-2.77-25.74L57.2,22.55c-0.02-0.81,0.29-1.58,0.86-2.16
			c0.56-0.58,1.34-0.9,2.14-0.9h54.4c0.8,0,1.57,0.32,2.14,0.9c0.56,0.57,0.87,1.35,0.86,2.15c0,0.07-0.12,7.16-0.12,9.17
			c0,10.19-1.46,32.7-4.36,41.26c-3.7,10.9-10.42,20.05-31.2,29.24c-0.27,0.13-0.55,0.21-0.84,0.26
			C80.93,102.5,80.77,102.51,80.62,102.51z"/>
	</g>
	<g>
		<path class="st1" d="M80.62,102.51c-0.46,0-0.91-0.11-1.33-0.31c-20.75-9.19-27.47-18.33-31.16-29.23
			c-1.92-5.67-3.03-16.78-3.52-22.91c-0.13-1.65,1.1-3.1,2.75-3.23c1.65-0.14,3.1,1.1,3.23,2.75c0.8,9.95,1.97,17.77,3.23,21.46
			c2.64,7.79,6.91,16.14,26.82,25.18c19.91-9.04,24.17-17.39,26.81-25.18c2.47-7.28,4.05-28.16,4.05-39.34c0-1.19,0.04-4,0.07-6.22
			H63.26l0.35,17.13c0,6.61,1.1,19.88,2.46,23.88c1.44,4.24,3.77,8.79,14.55,13.8c10.79-5.01,13.11-9.56,14.55-13.8
			c1.39-4.09,2.31-16.35,2.31-22.67c0-0.48,0.01-1.43,0.02-2.41H73.95c-1.66,0-3-1.34-3-3s1.34-3,3-3h26.6c0.8,0,1.57,0.32,2.14,0.9
			c0.56,0.57,0.87,1.35,0.86,2.15c0,0-0.07,4.16-0.07,5.36c0,5.7-0.79,19.2-2.63,24.6c-2.28,6.71-6.38,12.33-19.02,17.91
			c-0.03,0.01-0.07,0.03-0.1,0.04c-0.03,0.01-0.07,0.03-0.1,0.04c-0.72,0.26-1.52,0.23-2.23-0.08
			c-12.64-5.58-16.74-11.2-19.02-17.91c-1.8-5.29-2.77-19.78-2.77-25.74L57.2,22.55c-0.02-0.81,0.29-1.58,0.86-2.16
			c0.56-0.58,1.34-0.9,2.14-0.9h54.4c0.8,0,1.57,0.32,2.14,0.9c0.56,0.57,0.87,1.35,0.86,2.15c0,0.07-0.12,7.16-0.12,9.17
			c0,10.19-1.46,32.7-4.36,41.26c-3.7,10.9-10.42,20.05-31.2,29.24c-0.27,0.13-0.55,0.21-0.84,0.26
			C80.93,102.5,80.77,102.51,80.62,102.51z"/>
	</g>
	<path class="st1" d="M47.48,35.41h-17.9c-1.25-2.76-4.03-4.69-7.26-4.69c-4.4,0-7.97,3.58-7.97,7.97s3.58,7.97,7.97,7.97
		c3.44,0,6.37-2.2,7.49-5.26h17.67c1.66,0,3-1.34,3-3S49.13,35.41,47.48,35.41z M22.32,41.49c-1.54,0-2.8-1.25-2.8-2.8
		s1.25-2.8,2.8-2.8c1.41,0,2.57,1.05,2.76,2.42c0,0.03-0.01,0.06-0.01,0.1c0,0.13,0.02,0.26,0.04,0.38
		C25.05,40.29,23.83,41.49,22.32,41.49z"/>
</g>
</svg>
