<?xml version="1.0" encoding="utf-8"?>
<!-- Generator: Adobe Illustrator 24.0.1, SVG Export Plug-In . SVG Version: 6.00 Build 0)  -->
<svg version="1.1" id="Layer_1" xmlns="http://www.w3.org/2000/svg" xmlns:xlink="http://www.w3.org/1999/xlink" x="0px" y="0px"
	 viewBox="0 0 121.89 113.39" style="enable-background:new 0 0 121.89 113.39;" xml:space="preserve">
<style type="text/css">
	.st0{fill:#4DAEE0;}
</style>
<g>
	<g>
		<path class="st0" d="M70.72,99.14c-0.46,0-0.91-0.11-1.33-0.31C48.65,89.64,41.93,80.5,38.23,69.6
			c-1.92-5.67-3.03-16.78-3.52-22.91c-0.13-1.65,1.1-3.1,2.75-3.23c1.65-0.14,3.1,1.1,3.23,2.75c0.8,9.95,1.97,17.77,3.23,21.46
			c2.64,7.79,6.91,16.14,26.82,25.18c19.91-9.04,24.17-17.39,26.81-25.18c2.47-7.28,4.05-28.16,4.05-39.34c0-1.19,0.04-4,0.07-6.22
			H53.37l0.35,17.13c0,6.61,1.1,19.88,2.46,23.88c1.44,4.24,3.77,8.79,14.55,13.8c10.79-5.01,13.11-9.56,14.55-13.8
			c1.39-4.09,2.31-16.35,2.31-22.67c0-0.48,0.01-1.43,0.02-2.41H64.06c-1.66,0-3-1.34-3-3s1.34-3,3-3h26.6c0.8,0,1.57,0.32,2.14,0.9
			c0.56,0.57,0.87,1.35,0.86,2.15c0,0-0.07,4.16-0.07,5.36c0,5.7-0.79,19.2-2.63,24.6c-2.28,6.71-6.38,12.33-19.02,17.91
			c-0.03,0.01-0.07,0.03-0.1,0.04c-0.03,0.01-0.07,0.03-0.1,0.04c-0.72,0.26-1.52,0.23-2.23-0.08
			c-12.64-5.58-16.74-11.2-19.02-17.91c-1.8-5.29-2.77-19.78-2.77-25.74l-0.41-20.13c-0.02-0.81,0.29-1.58,0.86-2.16
			c0.56-0.58,1.34-0.9,2.14-0.9h54.4c0.8,0,1.57,0.32,2.14,0.9c0.56,0.57,0.87,1.35,0.86,2.15c0,0.07-0.12,7.16-0.12,9.17
			c0,10.19-1.46,32.7-4.36,41.26c-3.7,10.9-10.42,20.05-31.2,29.24c-0.27,0.13-0.55,0.21-0.84,0.26
			C71.04,99.13,70.88,99.14,70.72,99.14z"/>
	</g>
	<g>
		<path class="st0" d="M70.72,99.14c-0.46,0-0.91-0.11-1.33-0.31C48.65,89.64,41.93,80.5,38.23,69.6
			c-1.92-5.67-3.03-16.78-3.52-22.91c-0.13-1.65,1.1-3.1,2.75-3.23c1.65-0.14,3.1,1.1,3.23,2.75c0.8,9.95,1.97,17.77,3.23,21.46
			c2.64,7.79,6.91,16.14,26.82,25.18c19.91-9.04,24.17-17.39,26.81-25.18c2.47-7.28,4.05-28.16,4.05-39.34c0-1.19,0.04-4,0.07-6.22
			H53.37l0.35,17.13c0,6.61,1.1,19.88,2.46,23.88c1.44,4.24,3.77,8.79,14.55,13.8c10.79-5.01,13.11-9.56,14.55-13.8
			c1.39-4.09,2.31-16.35,2.31-22.67c0-0.48,0.01-1.43,0.02-2.41H64.06c-1.66,0-3-1.34-3-3s1.34-3,3-3h26.6c0.8,0,1.57,0.32,2.14,0.9
			c0.56,0.57,0.87,1.35,0.86,2.15c0,0-0.07,4.16-0.07,5.36c0,5.7-0.79,19.2-2.63,24.6c-2.28,6.71-6.38,12.33-19.02,17.91
			c-0.03,0.01-0.07,0.03-0.1,0.04c-0.03,0.01-0.07,0.03-0.1,0.04c-0.72,0.26-1.52,0.23-2.23-0.08
			c-12.64-5.58-16.74-11.2-19.02-17.91c-1.8-5.29-2.77-19.78-2.77-25.74l-0.41-20.13c-0.02-0.81,0.29-1.58,0.86-2.16
			c0.56-0.58,1.34-0.9,2.14-0.9h54.4c0.8,0,1.57,0.32,2.14,0.9c0.56,0.57,0.87,1.35,0.86,2.15c0,0.07-0.12,7.16-0.12,9.17
			c0,10.19-1.46,32.7-4.36,41.26c-3.7,10.9-10.42,20.05-31.2,29.24c-0.27,0.13-0.55,0.21-0.84,0.26
			C71.04,99.13,70.88,99.14,70.72,99.14z"/>
	</g>
	<path class="st0" d="M37.58,32.04h-17.9c-1.25-2.76-4.03-4.69-7.26-4.69c-4.4,0-7.97,3.58-7.97,7.97s3.58,7.97,7.97,7.97
		c3.44,0,6.37-2.2,7.49-5.26h17.67c1.66,0,3-1.34,3-3S39.24,32.04,37.58,32.04z M12.42,38.12c-1.54,0-2.8-1.25-2.8-2.8
		s1.25-2.8,2.8-2.8c1.41,0,2.57,1.05,2.76,2.42c0,0.03-0.01,0.06-0.01,0.1c0,0.13,0.02,0.26,0.04,0.38
		C15.16,36.91,13.93,38.12,12.42,38.12z"/>
</g>
</svg>
