<?xml version="1.0" encoding="utf-8"?>
<!-- Generator: Adobe Illustrator 24.0.1, SVG Export Plug-In . SVG Version: 6.00 Build 0)  -->
<svg version="1.1" id="Layer_1" xmlns="http://www.w3.org/2000/svg" xmlns:xlink="http://www.w3.org/1999/xlink" x="0px" y="0px"
	 viewBox="0 0 328.82 141.73" style="enable-background:new 0 0 328.82 141.73;" xml:space="preserve">
<style type="text/css">
	.st0{fill:#4DAEE0;}
	.st1{fill:#1E407C;}
	.st2{fill:#9D9D9C;}
</style>
<g>
	<path class="st0" d="M80.43,102.5c-0.46,0-0.91-0.11-1.33-0.31c-20.75-9.19-27.47-18.33-31.16-29.23
		c-1.92-5.67-3.03-16.78-3.52-22.91c-0.13-1.65,1.1-3.1,2.75-3.23c1.65-0.14,3.1,1.1,3.23,2.75c0.8,9.95,1.97,17.77,3.23,21.46
		c2.64,7.79,6.91,16.14,26.82,25.18c19.91-9.04,24.17-17.39,26.81-25.18c2.47-7.28,4.05-28.16,4.05-39.33c0-1.19,0.04-4,0.07-6.22
		H63.08l0.35,17.13c0,6.61,1.1,19.88,2.46,23.88c1.44,4.24,3.77,8.8,14.55,13.8c10.79-5.01,13.11-9.56,14.55-13.8
		c1.39-4.09,2.31-16.35,2.31-22.67c0-0.48,0.01-1.43,0.02-2.41H73.77c-1.66,0-3-1.34-3-3s1.34-3,3-3h26.6c0.8,0,1.57,0.32,2.14,0.9
		c0.56,0.57,0.87,1.35,0.86,2.15c0,0-0.07,4.16-0.07,5.36c0,5.7-0.79,19.2-2.63,24.6c-2.28,6.71-6.38,12.33-19.02,17.91
		c-0.77,0.34-1.66,0.34-2.43,0c-12.64-5.58-16.74-11.2-19.02-17.91c-1.8-5.29-2.77-19.78-2.77-25.75l-0.41-20.13
		c-0.02-0.81,0.29-1.58,0.86-2.16c0.56-0.58,1.34-0.9,2.14-0.9h54.4c0.8,0,1.57,0.32,2.14,0.9c0.56,0.57,0.87,1.35,0.86,2.15
		c0,0.07-0.12,7.16-0.12,9.17c0,10.19-1.46,32.7-4.36,41.26c-3.7,10.9-10.42,20.05-31.2,29.24c-0.27,0.13-0.55,0.22-0.84,0.26
		C80.74,102.49,80.59,102.5,80.43,102.5z"/>
</g>
<g>
	<path class="st1" d="M156.95,46.89c4.63-2.43,7.24-6.75,7.24-12.18c0-8.39-6.83-14.97-15.56-14.97h-10.75
		c-1.87,0-3.34,1.47-3.34,3.34v35.3c0,1.84,1.5,3.34,3.34,3.34c1.84,0,3.4-1.53,3.4-3.34v-9.41h6.93c0.68,0,1.32-0.03,1.92-0.08
		l8.21,11.47c0.7,0.93,1.72,1.42,2.78,1.42c0.7,0,1.42-0.22,2.05-0.66l0.08-0.06c1.45-1.12,1.65-3.07,0.47-4.78L156.95,46.89z
		 M157.45,34.71c0,4.53-3.65,7.7-8.88,7.7h-7.29V26.3h7.46C154.19,26.3,157.45,30.58,157.45,34.71z"/>
	<path class="st1" d="M207.06,51.45c-1.17-1.33-3.24-1.45-4.72-0.26l-0.16,0.14c-2.79,2.74-6.38,4.18-10.39,4.18
		c-7.99,0-14.49-6.61-14.49-14.73c0-8.32,6.39-14.84,14.55-14.84c3.8,0,7.5,1.57,10.39,4.42l0.27,0.22c1.58,1.1,3.54,0.88,4.71-0.58
		c1.05-1.4,0.79-3.36-0.56-4.53c-4.12-4.02-9.28-6.15-14.93-6.15c-11.67,0-21.17,9.63-21.17,21.46c0,11.8,9.52,21.41,21.23,21.41
		c5.71,0,10.86-2.1,14.9-6.06c1.3-1.19,1.52-3.07,0.51-4.5L207.06,51.45z"/>
</g>
<g>
	<path class="st0" d="M220.19,19.74c-1.87,0-3.34,1.47-3.34,3.34v35.3c0,1.84,1.5,3.34,3.34,3.34c1.84,0,3.4-1.53,3.4-3.34v-35.3
		C223.58,21.24,222.06,19.74,220.19,19.74z"/>
	<path class="st0" d="M252.49,22.19c-0.75-2.02-2.24-2.45-3.37-2.45c-1.47,0-2.71,0.86-3.41,2.4l-14.9,34.88
		c-0.43,1.07-0.33,2.26,0.25,3.18c0.57,0.9,1.53,1.46,2.55,1.52c1.41,0.13,2.67-0.6,3.33-1.92c0.02-0.04,0.04-0.08,0.06-0.12
		l3.18-7.51h17.94l3.15,7.46c0.48,1.3,1.73,2.17,3.08,2.17c0.12,0,0.23-0.01,0.35-0.02c0.01,0,0.02,0,0.02,0
		c1.09-0.14,2.02-0.75,2.54-1.7c0.53-0.95,0.57-2.1,0.13-3.04L252.49,22.19z M242.89,45.6l6.23-14.8l6.23,14.8H242.89z"/>
	<path class="st0" d="M309.57,19.74c-0.9,0-1.75,0.34-2.37,0.97c-0.06,0.06-0.11,0.11-0.16,0.18l-13.41,16.84l-13.47-16.84
		c-0.05-0.06-0.1-0.12-0.16-0.18c-0.44-0.44-1.22-0.97-2.43-0.97c-1.87,0-3.34,1.47-3.34,3.34v35.3c0,1.84,1.5,3.34,3.34,3.34
		c1.84,0,3.4-1.53,3.4-3.34V32.35l10.13,12.76c0.03,0.04,0.06,0.07,0.09,0.11c0.85,0.93,1.75,1.14,2.36,1.16
		c0.61,0.01,1.51-0.15,2.39-1.03c0.06-0.06,0.11-0.12,0.16-0.19l10.07-12.78v26c0,1.78,1.59,3.34,3.4,3.34c1.84,0,3.4-1.53,3.4-3.34
		v-35.3C312.97,21.21,311.48,19.74,309.57,19.74z"/>
</g>
<g>
	<path class="st0" d="M80.43,102.5c-0.46,0-0.91-0.11-1.33-0.31c-20.75-9.19-27.47-18.33-31.16-29.23
		c-1.92-5.67-3.03-16.78-3.52-22.91c-0.13-1.65,1.1-3.1,2.75-3.23c1.65-0.14,3.1,1.1,3.23,2.75c0.8,9.95,1.97,17.77,3.23,21.46
		c2.64,7.79,6.91,16.14,26.82,25.18c19.91-9.04,24.17-17.39,26.81-25.18c2.47-7.28,4.05-28.16,4.05-39.33c0-1.19,0.04-4,0.07-6.22
		H63.08l0.35,17.13c0,6.61,1.1,19.88,2.46,23.88c1.44,4.24,3.77,8.8,14.55,13.8c10.79-5.01,13.11-9.56,14.55-13.8
		c1.39-4.09,2.31-16.35,2.31-22.67c0-0.48,0.01-1.43,0.02-2.41H73.77c-1.66,0-3-1.34-3-3s1.34-3,3-3h26.6c0.8,0,1.57,0.32,2.14,0.9
		c0.56,0.57,0.87,1.35,0.86,2.15c0,0-0.07,4.16-0.07,5.36c0,5.7-0.79,19.2-2.63,24.6c-2.28,6.71-6.38,12.33-19.02,17.91
		c-0.77,0.34-1.66,0.34-2.43,0c-12.64-5.58-16.74-11.2-19.02-17.91c-1.8-5.29-2.77-19.78-2.77-25.75l-0.41-20.13
		c-0.02-0.81,0.29-1.58,0.86-2.16c0.56-0.58,1.34-0.9,2.14-0.9h54.4c0.8,0,1.57,0.32,2.14,0.9c0.56,0.57,0.87,1.35,0.86,2.15
		c0,0.07-0.12,7.16-0.12,9.17c0,10.19-1.46,32.7-4.36,41.26c-3.7,10.9-10.42,20.05-31.2,29.24c-0.27,0.13-0.55,0.22-0.84,0.26
		C80.74,102.49,80.59,102.5,80.43,102.5z"/>
</g>
<path class="st0" d="M47.29,35.4h-17.9c-1.25-2.76-4.03-4.69-7.26-4.69c-4.4,0-7.97,3.58-7.97,7.98c0,4.4,3.58,7.97,7.97,7.97
	c3.44,0,6.37-2.2,7.49-5.26h17.67c1.66,0,3-1.34,3-3S48.94,35.4,47.29,35.4z M22.13,41.48c-1.54,0-2.8-1.25-2.8-2.8
	s1.25-2.8,2.8-2.8c1.41,0,2.57,1.06,2.76,2.42c0,0.03-0.01,0.06-0.01,0.1c0,0.13,0.02,0.26,0.04,0.38
	C24.87,40.28,23.64,41.48,22.13,41.48z"/>
<g>
	<path class="st1" d="M135.14,84.45c0.39,0,0.73-0.34,0.73-0.74v-8.85c0-0.41-0.33-0.74-0.73-0.74c-0.4,0-0.71,0.32-0.71,0.74v8.85
		C134.43,84.12,134.75,84.45,135.14,84.45z"/>
	<path class="st1" d="M140.87,84.55c0.93,0,1.79-0.38,2.44-1.04v0.18c0,0.49,0.33,0.75,0.66,0.75c0.37,0,0.67-0.33,0.67-0.72V74.8
		c0-0.41-0.33-0.75-0.73-0.75c-0.41,0-0.71,0.32-0.71,0.75v2.71c-0.62-0.57-1.41-0.89-2.27-0.89c-2.08,0-3.7,1.73-3.7,3.95
		C137.22,82.77,138.86,84.55,140.87,84.55z M140.92,78.08c1.14,0,2.12,0.92,2.27,2.08c0,0.04,0,0.08,0.02,0.21
		c0.01,0.07,0.01,0.13,0.01,0.2c0,1.38-1.03,2.51-2.3,2.51c-1.26,0-2.29-1.12-2.29-2.51C138.63,79.18,139.64,78.08,140.92,78.08z"/>
	<path class="st1" d="M149.41,76.63c-2.02,0-3.6,1.73-3.6,3.95c0,2.27,1.55,3.98,3.6,3.98c1.12,0,2.04-0.41,2.57-1.13
		c0.29-0.32,0.26-0.76,0.06-1.02c-0.13-0.15-0.3-0.23-0.49-0.24c-0.18,0-0.43,0.09-0.61,0.29c-0.35,0.42-0.84,0.63-1.51,0.63
		c-1.04,0-1.88-0.77-2.12-1.87h4.77c0.34,0,0.69-0.25,0.69-0.81C152.77,78.28,151.3,76.63,149.41,76.63z M147.36,79.78
		c0.28-1.02,1.08-1.7,2.08-1.7c0.91,0,1.69,0.73,1.9,1.7H147.36z"/>
	<path class="st1" d="M159.27,80.4v3.32c0,0.41,0.32,0.74,0.71,0.74c0.41,0,0.73-0.32,0.73-0.74v-3.3c0-2.16-1.44-3.79-3.34-3.79
		c-0.83,0-1.59,0.32-2.18,0.88v-0.07c0-0.52-0.34-0.75-0.66-0.75c-0.36,0-0.66,0.32-0.66,0.72v6.31c0,0.41,0.33,0.74,0.73,0.74
		c0.39,0,0.71-0.33,0.71-0.74V80.4c0-1.32,0.87-2.31,2.02-2.31C158.44,78.08,159.27,79.08,159.27,80.4z"/>
	<path class="st1" d="M165.18,77.42c0-0.4-0.31-0.71-0.73-0.71h-0.73V75.5c0-0.41-0.33-0.74-0.73-0.74c-0.4,0-0.71,0.32-0.71,0.74
		v1.22h-0.73c-0.43,0-0.74,0.3-0.74,0.72c0,0.43,0.3,0.74,0.74,0.74h0.73v5.51c0,0.43,0.32,0.77,0.73,0.77
		c0.35,0,0.71-0.29,0.71-0.77v-5.51h0.73C164.88,78.17,165.18,77.86,165.18,77.42z"/>
	<path class="st1" d="M166.6,76.51c0.46,0,0.82-0.37,0.82-0.84c0-0.49-0.35-0.85-0.82-0.85c-0.46,0-0.81,0.37-0.81,0.85
		C165.79,76.14,166.15,76.51,166.6,76.51z"/>
	<path class="st1" d="M166.6,76.72c-0.41,0-0.73,0.33-0.73,0.75v6.23c0,0.41,0.33,0.75,0.73,0.75c0.39,0,0.71-0.34,0.71-0.75v-6.23
		C167.32,77.05,167,76.72,166.6,76.72z"/>
	<path class="st1" d="M172.38,77.42c0-0.4-0.31-0.71-0.73-0.71h-0.73V75.5c0-0.41-0.33-0.74-0.73-0.74c-0.4,0-0.71,0.32-0.71,0.74
		v1.22h-0.73c-0.43,0-0.74,0.3-0.74,0.72c0,0.43,0.3,0.74,0.74,0.74h0.73v5.51c0,0.43,0.32,0.77,0.73,0.77
		c0.35,0,0.71-0.29,0.71-0.77v-5.51h0.73C172.08,78.17,172.38,77.86,172.38,77.42z"/>
	<path class="st1" d="M175.17,83.84c-0.56,1.37-0.91,1.69-1.82,1.69c-0.42,0.03-0.7,0.31-0.7,0.72s0.33,0.72,0.74,0.72
		c1.81,0,2.48-1.24,3.12-2.73l2.77-6.47l0.01-0.02c0.09-0.25,0.06-0.53-0.09-0.74c-0.13-0.19-0.35-0.3-0.51-0.29
		c-0.34-0.03-0.64,0.17-0.73,0.47l-2.03,4.87l-2.02-4.85c-0.16-0.51-0.94-0.67-1.26-0.18c-0.14,0.22-0.17,0.5-0.07,0.73
		L175.17,83.84z"/>
	<path class="st1" d="M183.85,84.45c0.29,0.03,0.58-0.13,0.73-0.46l0.76-1.94h4.25l0.75,1.91c0.09,0.3,0.37,0.51,0.67,0.51
		c0.03,0,0.05,0,0.08,0l0.01,0c0.23-0.03,0.42-0.16,0.53-0.36c0.12-0.21,0.13-0.47,0.04-0.68l-3.47-8.72
		c-0.16-0.47-0.49-0.57-0.73-0.57c-0.32,0-0.59,0.2-0.74,0.55l-3.47,8.74c-0.09,0.24-0.06,0.51,0.07,0.71
		C183.44,84.32,183.64,84.43,183.85,84.45z M185.9,80.61l1.57-4l1.57,4H185.9z"/>
	<path class="st1" d="M198.29,82.49c-0.19-0.25-0.58-0.42-1.08-0.03c-0.39,0.4-0.91,0.62-1.48,0.62c-1.24,0-2.22-1.1-2.22-2.51
		c0-1.4,0.97-2.49,2.22-2.49c0.6,0,1.11,0.21,1.53,0.64c0.45,0.34,0.83,0.18,1.03-0.07c0.24-0.33,0.21-0.72-0.06-0.98
		c-0.62-0.66-1.53-1.04-2.5-1.04c-1.8,0-3.66,1.48-3.66,3.95c0,2.23,1.61,3.98,3.66,3.98c0.92,0,1.86-0.4,2.49-1.06
		C198.51,83.2,198.53,82.75,198.29,82.49z"/>
	<path class="st1" d="M205.44,83.49c0.29-0.29,0.32-0.74,0.07-1c-0.19-0.25-0.58-0.42-1.08-0.03c-0.39,0.4-0.91,0.62-1.48,0.62
		c-1.24,0-2.22-1.1-2.22-2.51c0-1.4,0.97-2.49,2.22-2.49c0.6,0,1.11,0.21,1.53,0.64c0.45,0.34,0.83,0.18,1.03-0.07
		c0.24-0.33,0.21-0.72-0.06-0.98c-0.62-0.66-1.53-1.04-2.5-1.04c-1.8,0-3.66,1.48-3.66,3.95c0,2.23,1.61,3.98,3.66,3.98
		C203.87,84.55,204.8,84.16,205.44,83.49z"/>
	<path class="st1" d="M212.69,83.42c0.29-0.32,0.26-0.76,0.06-1.02c-0.13-0.15-0.3-0.23-0.49-0.24c-0.19,0-0.43,0.09-0.61,0.29
		c-0.35,0.42-0.84,0.63-1.51,0.63c-1.04,0-1.88-0.77-2.12-1.87h4.77c0.34,0,0.69-0.25,0.69-0.81c0-2.11-1.47-3.77-3.36-3.77
		c-2.02,0-3.6,1.73-3.6,3.95c0,2.27,1.55,3.98,3.6,3.98C211.24,84.55,212.16,84.14,212.69,83.42z M208.07,79.78
		c0.28-1.02,1.08-1.7,2.08-1.7c0.91,0,1.69,0.73,1.9,1.7H208.07z"/>
	<path class="st1" d="M217.01,79.74c-0.8-0.26-1.07-0.51-1.07-0.99c0-0.2,0-0.67,0.92-0.67c0.6,0,1,0.19,1.27,0.61l0.15,0.14
		c0.11,0.08,0.25,0.17,0.48,0.17c0.37,0,0.67-0.32,0.67-0.72c0-0.2-0.08-0.4-0.19-0.51c-0.53-0.76-1.32-1.14-2.33-1.14
		c-1.47,0-2.42,0.82-2.42,2.1c0,1.15,0.68,1.92,2.03,2.32c1.3,0.38,1.75,0.67,1.75,1.13c0,0.51-0.55,0.92-1.23,0.92
		c-0.73,0-1.23-0.22-1.51-0.67l-0.08-0.09c-0.5-0.44-1.24-0.16-1.24,0.45c0,0.17,0.06,0.34,0.17,0.49c0.48,0.82,1.43,1.28,2.63,1.28
		c1.52,0,2.71-1.04,2.71-2.38C219.71,80.58,218.15,80.1,217.01,79.74z"/>
	<path class="st1" d="M223.24,84.55c1.52,0,2.71-1.04,2.71-2.38c0-1.59-1.56-2.08-2.7-2.43c-0.8-0.26-1.07-0.51-1.07-0.99
		c0-0.2,0-0.67,0.92-0.67c0.6,0,1,0.19,1.27,0.61l0.15,0.14c0.11,0.08,0.25,0.17,0.48,0.17c0.37,0,0.67-0.32,0.67-0.72
		c0-0.2-0.08-0.4-0.19-0.51c-0.53-0.76-1.32-1.14-2.33-1.14c-1.47,0-2.42,0.82-2.42,2.1c0,1.15,0.68,1.92,2.03,2.32
		c1.3,0.38,1.75,0.67,1.75,1.13c0,0.51-0.55,0.92-1.23,0.92c-0.73,0-1.23-0.22-1.51-0.67l-0.08-0.09c-0.5-0.44-1.24-0.16-1.24,0.45
		c0,0.17,0.06,0.34,0.17,0.49C221.09,84.08,222.05,84.55,223.24,84.55z"/>
	<path class="st1" d="M240.38,83.71v-8.85c0-0.61-0.78-1.02-1.28-0.47l-3.17,4.28l-3.21-4.31c-0.1-0.1-0.26-0.22-0.53-0.22
		c-0.4,0-0.71,0.32-0.71,0.74v8.85c0,0.41,0.32,0.74,0.71,0.74c0.39,0,0.73-0.34,0.73-0.74v-6.75l2.48,3.36
		c0.18,0.22,0.38,0.27,0.52,0.27c0.14,0,0.33-0.04,0.55-0.28l2.45-3.35v6.74c0,0.39,0.34,0.74,0.73,0.74
		C240.05,84.45,240.38,84.11,240.38,83.71z"/>
	<path class="st1" d="M248.49,76.72c-0.33,0-0.67,0.26-0.67,0.75v0.18c-0.63-0.65-1.48-1.02-2.42-1.02c-2.02,0-3.66,1.78-3.66,3.96
		c0,2.18,1.64,3.96,3.66,3.96c0.95,0,1.79-0.36,2.42-1.01v0.17c0,0.43,0.28,0.74,0.67,0.74c0.38,0,0.66-0.31,0.66-0.74v-6.28
		C249.15,77.05,248.85,76.72,248.49,76.72z M245.45,83.08c-1.27,0-2.3-1.12-2.3-2.49c0-1.38,1.03-2.51,2.3-2.51
		c1.28,0,2.29,1.1,2.29,2.51C247.74,81.99,246.73,83.08,245.45,83.08z"/>
	<path class="st1" d="M251.29,84.45c0.39,0,0.71-0.33,0.71-0.74V80.4c0-1.32,0.87-2.31,2.02-2.31c1.1,0,1.93,0.99,1.93,2.31v3.32
		c0,0.41,0.32,0.74,0.71,0.74c0.41,0,0.73-0.32,0.73-0.74v-3.3c0-2.16-1.44-3.79-3.34-3.79c-0.83,0-1.59,0.32-2.18,0.88v-0.07
		c0-0.52-0.34-0.75-0.66-0.75c-0.36,0-0.66,0.32-0.66,0.72v6.31C250.56,84.12,250.89,84.45,251.29,84.45z"/>
	<path class="st1" d="M262.1,84.55c0.95,0,1.79-0.36,2.42-1.01v0.17c0,0.43,0.28,0.74,0.67,0.74c0.38,0,0.66-0.31,0.66-0.74v-6.28
		c0-0.39-0.3-0.72-0.66-0.72c-0.33,0-0.67,0.26-0.67,0.75v0.18c-0.63-0.65-1.48-1.02-2.42-1.02c-2.02,0-3.66,1.78-3.66,3.96
		C258.45,82.77,260.09,84.55,262.1,84.55z M262.16,83.08c-1.27,0-2.3-1.12-2.3-2.49c0-1.38,1.03-2.51,2.3-2.51
		c1.28,0,2.29,1.1,2.29,2.51C264.45,81.99,263.44,83.08,262.16,83.08z"/>
	<path class="st1" d="M274.46,83.62v-6.19c0-0.4-0.29-0.72-0.66-0.72c-0.32,0-0.66,0.23-0.66,0.75v0.2
		c-0.63-0.65-1.48-1.02-2.44-1.02c-2,0-3.63,1.76-3.63,3.92c0,2.18,1.63,3.95,3.63,3.95c0.94,0,1.8-0.38,2.44-1.04l-0.11,0.11
		c0,1.49-0.65,2.15-1.39,2.15l-2.4,0c-0.4,0.03-0.68,0.36-0.65,0.77c0.02,0.39,0.31,0.67,0.66,0.67c0.01,0,0.02,0,0.03,0h2.45
		C273.04,87.17,274.46,86.06,274.46,83.62z M270.84,83.05c-1.26,0-2.29-1.12-2.29-2.49c0-1.39,1-2.48,2.29-2.48s2.29,1.09,2.29,2.48
		C273.13,81.96,272.12,83.05,270.84,83.05z"/>
	<path class="st1" d="M281.62,82.4c-0.13-0.15-0.3-0.23-0.49-0.24c-0.18,0-0.43,0.09-0.61,0.29c-0.35,0.42-0.84,0.63-1.51,0.63
		c-1.04,0-1.88-0.77-2.12-1.87h4.77c0.34,0,0.69-0.25,0.69-0.81c0-2.11-1.47-3.77-3.36-3.77c-2.02,0-3.6,1.73-3.6,3.95
		c0,2.27,1.55,3.98,3.6,3.98c1.12,0,2.04-0.41,2.57-1.13C281.86,83.11,281.82,82.66,281.62,82.4z M276.94,79.78
		c0.28-1.02,1.08-1.7,2.08-1.7c0.91,0,1.69,0.73,1.9,1.7H276.94z"/>
	<path class="st1" d="M291.26,79.36v4.34c0,0.41,0.33,0.75,0.73,0.75c0.39,0,0.71-0.34,0.71-0.75v-4.38
		c-0.03-1.51-1.18-2.69-2.61-2.69c-0.76,0-1.48,0.38-1.95,0.98c-0.44-0.61-1.13-0.98-1.92-0.98c-0.51,0-1.03,0.19-1.46,0.51
		c-0.1-0.31-0.37-0.46-0.62-0.46c-0.36,0-0.66,0.32-0.66,0.72v6.29c0,0.41,0.33,0.75,0.73,0.75c0.39,0,0.71-0.34,0.71-0.75v-4.28
		c0-0.7,0.57-1.31,1.23-1.31c0.59,0,1.21,0.5,1.21,1.25v4.34c0,0.41,0.33,0.75,0.73,0.75c0.39,0,0.71-0.34,0.71-0.75v-4.28
		c0-0.7,0.57-1.31,1.23-1.31C290.61,78.11,291.26,78.63,291.26,79.36z"/>
	<path class="st1" d="M297.35,84.55c1.12,0,2.04-0.41,2.57-1.13c0.29-0.32,0.26-0.76,0.06-1.02c-0.13-0.15-0.3-0.23-0.49-0.24
		c-0.18,0-0.43,0.09-0.61,0.29c-0.35,0.42-0.84,0.63-1.51,0.63c-1.04,0-1.88-0.77-2.12-1.87h4.77c0.34,0,0.69-0.25,0.69-0.81
		c0-2.11-1.47-3.77-3.36-3.77c-2.02,0-3.6,1.73-3.6,3.95C293.75,82.84,295.3,84.55,297.35,84.55z M295.3,79.78
		c0.28-1.02,1.08-1.7,2.08-1.7c0.91,0,1.69,0.73,1.9,1.7H295.3z"/>
	<path class="st1" d="M305.34,76.63c-0.83,0-1.59,0.32-2.18,0.88v-0.07c0-0.52-0.34-0.75-0.66-0.75c-0.36,0-0.66,0.32-0.66,0.72
		v6.31c0,0.41,0.33,0.74,0.73,0.74c0.39,0,0.71-0.33,0.71-0.74V80.4c0-1.32,0.87-2.31,2.02-2.31c1.1,0,1.93,0.99,1.93,2.31v3.32
		c0,0.41,0.32,0.74,0.71,0.74c0.41,0,0.73-0.32,0.73-0.74v-3.3C308.68,78.25,307.24,76.63,305.34,76.63z"/>
	<path class="st1" d="M312.93,76.72h-0.73V75.5c0-0.41-0.33-0.74-0.73-0.74c-0.4,0-0.71,0.32-0.71,0.74v1.22h-0.73
		c-0.43,0-0.74,0.3-0.74,0.72c0,0.43,0.3,0.74,0.74,0.74h0.73v5.51c0,0.43,0.32,0.77,0.73,0.77c0.35,0,0.71-0.29,0.71-0.77v-5.51
		h0.73c0.42,0,0.73-0.32,0.73-0.75C313.66,77.02,313.35,76.72,312.93,76.72z"/>
	<path class="st1" d="M137.35,93.18c0.38,0,0.69-0.3,0.69-0.69c0-0.41-0.33-0.75-0.74-0.75c-1.8,0-2.69,0.87-2.77,2.74h-0.41
		c-0.39,0-0.7,0.32-0.7,0.72c0,0.4,0.31,0.72,0.7,0.72h0.4v5.54c0,0.41,0.32,0.75,0.71,0.75c0.4,0,0.73-0.34,0.73-0.75v-5.53h1.06
		c0.44,0,0.73-0.3,0.73-0.74c0-0.41-0.31-0.72-0.73-0.72h-1.08C136.01,93.37,136.44,93.18,137.35,93.18z"/>
	<path class="st1" d="M141.72,94.39c-2.05,0-3.71,1.78-3.71,3.96c0,2.18,1.67,3.96,3.71,3.96c2.04,0,3.7-1.78,3.7-3.96
		C145.43,96.16,143.77,94.39,141.72,94.39z M141.72,100.84c-1.27,0-2.3-1.12-2.3-2.49c0-1.38,1.03-2.51,2.3-2.51
		c1.28,0,2.29,1.1,2.29,2.51C144.01,99.72,142.99,100.84,141.72,100.84z"/>
	<path class="st1" d="M150.47,94.46c-1,0-1.9,0.38-2.56,1.07v-0.3c0-0.52-0.34-0.75-0.66-0.75c-0.36,0-0.66,0.32-0.66,0.72v6.28
		c0,0.43,0.28,0.74,0.73,0.74c0.39,0,0.71-0.34,0.71-0.75V98.6c0-1.5,1.07-2.67,2.44-2.67c0.42,0,0.74-0.32,0.74-0.74
		C151.21,94.77,150.9,94.46,150.47,94.46z"/>
	<path class="st1" d="M161.73,98.55c1.11-0.58,1.74-1.65,1.74-3.01c0-2.05-1.57-3.65-3.56-3.65h-2.5c-0.4,0-0.71,0.32-0.71,0.74
		v8.85c0,0.41,0.32,0.74,0.71,0.74c0.39,0,0.73-0.34,0.73-0.74v-2.46h1.68c0.17,0,0.32-0.01,0.47-0.02l1.93,2.91
		c0.12,0.17,0.3,0.29,0.49,0.32c0.04,0.01,0.07,0.01,0.11,0.01c0.16,0,0.32-0.05,0.46-0.16l0.02-0.01c0.3-0.25,0.34-0.66,0.09-1.04
		L161.73,98.55z M162.03,95.54c0,1.2-0.88,2.03-2.14,2.03h-1.76v-4.24h1.8C161.24,93.33,162.03,94.45,162.03,95.54z"/>
	<path class="st1" d="M168.02,94.39c-2.02,0-3.6,1.73-3.6,3.95c0,2.27,1.55,3.98,3.6,3.98c1.12,0,2.04-0.41,2.57-1.13
		c0.29-0.32,0.26-0.76,0.06-1.02c-0.13-0.15-0.3-0.23-0.49-0.24c-0.19,0-0.43,0.09-0.61,0.29c-0.35,0.42-0.84,0.63-1.51,0.63
		c-1.04,0-1.88-0.77-2.12-1.87h4.77c0.34,0,0.69-0.25,0.69-0.81C171.38,96.04,169.9,94.39,168.02,94.39z M165.97,97.54
		c0.28-1.02,1.08-1.7,2.08-1.7c0.91,0,1.69,0.73,1.9,1.7H165.97z"/>
	<path class="st1" d="M174.97,97.5c-0.8-0.26-1.07-0.51-1.07-0.99c0-0.2,0-0.67,0.92-0.67c0.6,0,1,0.19,1.27,0.61l0.15,0.14
		c0.11,0.08,0.25,0.17,0.48,0.17c0.37,0,0.67-0.32,0.67-0.72c0-0.2-0.08-0.4-0.19-0.51c-0.53-0.76-1.32-1.14-2.33-1.14
		c-1.47,0-2.42,0.82-2.42,2.1c0,1.15,0.68,1.92,2.03,2.32c1.3,0.38,1.75,0.67,1.75,1.13c0,0.51-0.55,0.92-1.23,0.92
		c-0.73,0-1.23-0.22-1.51-0.67l-0.08-0.09c-0.5-0.44-1.24-0.16-1.24,0.45c0,0.17,0.06,0.34,0.17,0.49c0.48,0.82,1.43,1.28,2.63,1.28
		c1.52,0,2.71-1.04,2.71-2.38C177.68,98.34,176.11,97.86,174.97,97.5z"/>
	<path class="st1" d="M182.43,94.39c-2.02,0-3.6,1.73-3.6,3.95c0,2.27,1.55,3.98,3.6,3.98c1.12,0,2.04-0.41,2.57-1.13
		c0.29-0.32,0.26-0.76,0.06-1.02c-0.13-0.15-0.3-0.23-0.49-0.24c-0.19,0-0.43,0.09-0.61,0.29c-0.35,0.42-0.84,0.63-1.51,0.63
		c-1.04,0-1.88-0.77-2.12-1.87h4.77c0.34,0,0.69-0.25,0.69-0.81C185.79,96.04,184.32,94.39,182.43,94.39z M180.38,97.54
		c0.28-1.02,1.08-1.7,2.08-1.7c0.91,0,1.69,0.73,1.9,1.7H180.38z"/>
	<path class="st1" d="M193.37,94.48c-0.33,0-0.67,0.26-0.67,0.75v0.18c-0.63-0.65-1.48-1.02-2.42-1.02c-2.02,0-3.66,1.78-3.66,3.96
		c0,2.18,1.64,3.96,3.66,3.96c0.95,0,1.79-0.36,2.42-1.01v0.17c0,0.43,0.28,0.74,0.67,0.74c0.38,0,0.66-0.31,0.66-0.74V95.2
		C194.03,94.81,193.73,94.48,193.37,94.48z M190.33,100.84c-1.27,0-2.3-1.12-2.3-2.49c0-1.38,1.03-2.51,2.3-2.51
		c1.28,0,2.29,1.1,2.29,2.51C192.62,99.75,191.61,100.84,190.33,100.84z"/>
	<path class="st1" d="M199.6,94.46c-1,0-1.9,0.38-2.56,1.07v-0.3c0-0.52-0.34-0.75-0.66-0.75c-0.36,0-0.66,0.32-0.66,0.72v6.28
		c0,0.43,0.28,0.74,0.73,0.74c0.39,0,0.71-0.34,0.71-0.75V98.6c0-1.5,1.07-2.67,2.44-2.67c0.42,0,0.74-0.32,0.74-0.74
		C200.34,94.77,200.03,94.46,199.6,94.46z"/>
	<path class="st1" d="M205.84,100.22c-0.39,0.4-0.91,0.62-1.48,0.62c-1.24,0-2.22-1.1-2.22-2.51c0-1.4,0.97-2.49,2.22-2.49
		c0.6,0,1.11,0.21,1.53,0.64c0.45,0.34,0.83,0.18,1.03-0.07c0.24-0.33,0.21-0.72-0.06-0.98c-0.62-0.66-1.53-1.04-2.5-1.04
		c-1.8,0-3.66,1.48-3.66,3.95c0,2.23,1.61,3.98,3.66,3.98c0.92,0,1.86-0.4,2.49-1.06c0.29-0.29,0.32-0.74,0.07-1
		C206.73,100,206.35,99.83,205.84,100.22z"/>
	<path class="st1" d="M212.13,94.39c-0.75,0-1.45,0.27-2.03,0.75v-2.58c0-0.42-0.32-0.75-0.73-0.75c-0.39,0-0.71,0.34-0.71,0.75v8.9
		c0,0.41,0.32,0.75,0.71,0.75c0.4,0,0.73-0.34,0.73-0.75v-3.32c0-1.31,0.87-2.3,2.03-2.3c1.12,0,1.93,0.99,1.93,2.34v3.27
		c0,0.42,0.31,0.75,0.71,0.75c0.41,0,0.73-0.33,0.73-0.75v-3.27C215.5,96.02,214.05,94.39,212.13,94.39z"/>
	<path class="st1" d="M225.53,92.88c0.9,0,1.77,0.4,2.51,1.17c0.17,0.13,0.38,0.18,0.57,0.16c0.18-0.03,0.34-0.12,0.46-0.28
		c0.22-0.31,0.15-0.74-0.11-0.96c-0.95-1.01-2.15-1.54-3.46-1.54c-2.69,0-4.87,2.37-4.87,5.28c0,2.9,2.19,5.26,4.88,5.26
		c1.32,0,2.51-0.52,3.43-1.49c0.27-0.26,0.32-0.67,0.09-1.02c-0.11-0.14-0.28-0.23-0.46-0.24c-0.2-0.02-0.41,0.05-0.6,0.22
		c-0.66,0.7-1.51,1.07-2.46,1.07c-1.9,0-3.44-1.7-3.44-3.79C222.08,94.56,223.6,92.88,225.53,92.88z"/>
	<path class="st1" d="M234.2,94.39c-2.05,0-3.71,1.78-3.71,3.96c0,2.18,1.67,3.96,3.71,3.96c2.04,0,3.7-1.78,3.7-3.96
		C237.9,96.16,236.24,94.39,234.2,94.39z M234.2,100.84c-1.27,0-2.3-1.12-2.3-2.49c0-1.38,1.03-2.51,2.3-2.51
		c1.28,0,2.29,1.1,2.29,2.51C236.48,99.72,235.46,100.84,234.2,100.84z"/>
	<path class="st1" d="M245.92,94.39c-0.76,0-1.48,0.38-1.95,0.98c-0.44-0.61-1.13-0.98-1.92-0.98c-0.51,0-1.03,0.19-1.46,0.51
		c-0.1-0.31-0.37-0.46-0.62-0.46c-0.36,0-0.66,0.32-0.66,0.72v6.29c0,0.41,0.33,0.75,0.73,0.75c0.39,0,0.71-0.34,0.71-0.75v-4.28
		c0-0.7,0.57-1.31,1.23-1.31c0.59,0,1.21,0.5,1.21,1.25v4.34c0,0.41,0.33,0.75,0.73,0.75c0.39,0,0.71-0.34,0.71-0.75v-4.28
		c0-0.7,0.57-1.31,1.23-1.31c0.58,0,1.23,0.51,1.23,1.25v4.34c0,0.41,0.33,0.75,0.73,0.75c0.39,0,0.71-0.34,0.71-0.75v-4.38
		C248.5,95.57,247.35,94.39,245.92,94.39z"/>
	<path class="st1" d="M256.98,94.39c-0.76,0-1.48,0.38-1.95,0.98c-0.44-0.61-1.13-0.98-1.92-0.98c-0.51,0-1.03,0.19-1.46,0.51
		c-0.1-0.31-0.37-0.46-0.62-0.46c-0.36,0-0.66,0.32-0.66,0.72v6.29c0,0.41,0.33,0.75,0.73,0.75c0.39,0,0.71-0.34,0.71-0.75v-4.28
		c0-0.7,0.57-1.31,1.23-1.31c0.59,0,1.21,0.5,1.21,1.25v4.34c0,0.41,0.33,0.75,0.73,0.75c0.39,0,0.71-0.34,0.71-0.75v-4.28
		c0-0.7,0.57-1.31,1.23-1.31c0.58,0,1.23,0.51,1.23,1.25v4.34c0,0.41,0.33,0.75,0.73,0.75c0.39,0,0.71-0.34,0.71-0.75v-4.38
		C259.56,95.57,258.41,94.39,256.98,94.39z"/>
	<path class="st1" d="M267.36,94.48c-0.4,0-0.73,0.33-0.73,0.74v3.25c0.01,0.75-0.22,1.41-0.65,1.84c-0.33,0.34-0.78,0.52-1.28,0.52
		c-1.15,0-2.01-0.99-2.01-2.31v-3.29c0-0.41-0.33-0.74-0.73-0.74c-0.4,0-0.71,0.32-0.71,0.74v3.29c0,2.1,1.51,3.81,3.37,3.81
		c0.84,0,1.57-0.3,2.14-0.85c0,0.49,0.33,0.75,0.66,0.75c0.37,0,0.67-0.33,0.67-0.72v-6.28C268.09,94.8,267.77,94.48,267.36,94.48z"
		/>
	<path class="st1" d="M273.39,94.39c-0.83,0-1.59,0.32-2.18,0.88V95.2c0-0.52-0.34-0.75-0.66-0.75c-0.36,0-0.66,0.32-0.66,0.72v6.31
		c0,0.41,0.33,0.74,0.73,0.74c0.39,0,0.71-0.33,0.71-0.74v-3.32c0-1.32,0.87-2.31,2.02-2.31c1.1,0,1.93,0.99,1.93,2.31v3.32
		c0,0.41,0.32,0.74,0.71,0.74c0.41,0,0.73-0.32,0.73-0.74v-3.3C276.73,96.01,275.29,94.39,273.39,94.39z"/>
	<path class="st1" d="M279.33,94.48c-0.41,0-0.73,0.33-0.73,0.75v6.23c0,0.41,0.33,0.75,0.73,0.75c0.39,0,0.71-0.34,0.71-0.75v-6.23
		C280.04,94.8,279.73,94.48,279.33,94.48z"/>
	<path class="st1" d="M279.33,92.58c-0.46,0-0.81,0.37-0.81,0.85c0,0.46,0.36,0.84,0.81,0.84c0.46,0,0.82-0.37,0.82-0.84
		C280.15,92.95,279.8,92.58,279.33,92.58z"/>
	<path class="st1" d="M284.75,94.48h-0.73v-1.22c0-0.41-0.33-0.74-0.73-0.74c-0.4,0-0.71,0.32-0.71,0.74v1.22h-0.73
		c-0.43,0-0.74,0.3-0.74,0.72c0,0.43,0.3,0.74,0.74,0.74h0.73v5.51c0,0.43,0.32,0.77,0.73,0.77c0.35,0,0.71-0.29,0.71-0.77v-5.51
		h0.73c0.42,0,0.73-0.32,0.73-0.75C285.47,94.78,285.16,94.48,284.75,94.48z"/>
	<path class="st1" d="M287.23,94.48c-0.41,0-0.73,0.33-0.73,0.75v6.23c0,0.41,0.33,0.75,0.73,0.75c0.39,0,0.71-0.34,0.71-0.75v-6.23
		C287.94,94.8,287.63,94.48,287.23,94.48z"/>
	<path class="st1" d="M287.23,92.58c-0.46,0-0.81,0.37-0.81,0.85c0,0.46,0.36,0.84,0.81,0.84c0.46,0,0.82-0.37,0.82-0.84
		C288.05,92.95,287.7,92.58,287.23,92.58z"/>
	<path class="st1" d="M293.09,94.39c-2.02,0-3.6,1.73-3.6,3.95c0,2.27,1.55,3.98,3.6,3.98c1.12,0,2.04-0.41,2.57-1.13
		c0.29-0.32,0.26-0.76,0.06-1.02c-0.13-0.15-0.3-0.23-0.49-0.24c-0.18,0-0.43,0.09-0.61,0.29c-0.35,0.42-0.84,0.63-1.51,0.63
		c-1.04,0-1.88-0.77-2.12-1.87h4.77c0.34,0,0.69-0.25,0.69-0.81C296.45,96.04,294.97,94.39,293.09,94.39z M291.04,97.54
		c0.28-1.02,1.08-1.7,2.08-1.7c0.91,0,1.69,0.73,1.9,1.7H291.04z"/>
	<path class="st1" d="M299.98,97.5c-0.8-0.26-1.07-0.51-1.07-0.99c0-0.2,0-0.67,0.92-0.67c0.6,0,1,0.19,1.27,0.61l0.15,0.14
		c0.11,0.08,0.25,0.17,0.48,0.17c0.37,0,0.67-0.32,0.67-0.72c0-0.2-0.08-0.4-0.19-0.51c-0.53-0.76-1.32-1.14-2.33-1.14
		c-1.47,0-2.42,0.82-2.42,2.1c0,1.15,0.68,1.92,2.03,2.32c1.3,0.38,1.75,0.67,1.75,1.13c0,0.51-0.55,0.92-1.23,0.92
		c-0.73,0-1.23-0.22-1.51-0.67l-0.08-0.09c-0.5-0.44-1.24-0.16-1.24,0.45c0,0.17,0.06,0.34,0.17,0.49c0.48,0.82,1.43,1.28,2.63,1.28
		c1.52,0,2.71-1.04,2.71-2.38C302.68,98.34,301.12,97.86,299.98,97.5z"/>
</g>
<g>
	<g>
		<g>
			<path class="st2" d="M280.43,122.26c0,0.71-0.11,1.32-0.33,1.84c-0.22,0.52-0.52,0.95-0.9,1.3c-0.38,0.34-0.81,0.59-1.3,0.76
				c-0.49,0.17-1.01,0.25-1.55,0.25c-0.61,0-1.2-0.14-1.77-0.43c-0.58-0.29-1.08-0.67-1.5-1.14l1.47-1.17
				c0.24,0.24,0.51,0.44,0.83,0.6c0.32,0.17,0.65,0.25,1.01,0.25c0.63,0,1.15-0.18,1.55-0.52c0.4-0.35,0.61-0.86,0.61-1.52v-0.97
				c-0.3,0.32-0.66,0.58-1.08,0.79c-0.42,0.2-0.87,0.31-1.35,0.31c-0.63,0-1.16-0.12-1.56-0.37c-0.41-0.25-0.72-0.51-0.93-0.78
				c-0.13-0.17-0.25-0.34-0.33-0.5c-0.09-0.16-0.16-0.37-0.22-0.62c-0.05-0.25-0.1-0.58-0.12-0.98c-0.03-0.4-0.04-0.92-0.04-1.56
				c0-0.66,0.01-1.18,0.04-1.58c0.03-0.4,0.07-0.72,0.12-0.98c0.06-0.26,0.13-0.46,0.22-0.62c0.09-0.16,0.2-0.33,0.33-0.5
				c0.21-0.27,0.52-0.53,0.93-0.78c0.41-0.25,0.93-0.37,1.56-0.37c0.48,0,0.92,0.09,1.31,0.28c0.39,0.19,0.77,0.46,1.13,0.84v-1h1.9
				V122.26z M278.53,117.78c0-0.38-0.01-0.7-0.01-0.93c-0.01-0.24-0.02-0.43-0.05-0.59c-0.02-0.15-0.06-0.28-0.11-0.38
				c-0.05-0.1-0.12-0.2-0.2-0.32c-0.14-0.17-0.33-0.34-0.57-0.49c-0.24-0.16-0.55-0.24-0.92-0.24c-0.38,0-0.7,0.08-0.94,0.24
				c-0.24,0.15-0.43,0.32-0.56,0.49c-0.09,0.11-0.16,0.22-0.21,0.32c-0.05,0.1-0.09,0.23-0.11,0.38c-0.03,0.16-0.04,0.35-0.05,0.59
				c-0.01,0.24-0.01,0.55-0.01,0.93c0,0.37,0,0.68,0.01,0.91c0.01,0.24,0.02,0.43,0.05,0.59c0.02,0.15,0.06,0.28,0.11,0.38
				c0.05,0.1,0.12,0.2,0.21,0.32c0.14,0.17,0.32,0.33,0.56,0.49c0.24,0.15,0.56,0.23,0.94,0.23c0.37,0,0.68-0.08,0.92-0.23
				c0.24-0.16,0.43-0.32,0.57-0.49c0.09-0.11,0.15-0.22,0.2-0.32c0.05-0.1,0.09-0.23,0.11-0.38c0.02-0.15,0.04-0.35,0.05-0.59
				C278.52,118.46,278.53,118.15,278.53,117.78z"/>
		</g>
		<g>
			<path class="st2" d="M287.86,115.31c-0.23-0.17-0.42-0.29-0.61-0.36c-0.18-0.07-0.39-0.1-0.64-0.1c-0.24,0-0.46,0.04-0.68,0.11
				c-0.22,0.08-0.41,0.19-0.59,0.35c-0.17,0.16-0.31,0.37-0.42,0.61c-0.1,0.25-0.16,0.55-0.16,0.89v5.67h-1.9v-9.42h1.9v1h0.04
				c0.6-0.74,1.42-1.12,2.46-1.12c0.38,0,0.74,0.06,1.06,0.19c0.32,0.13,0.63,0.31,0.91,0.53L287.86,115.31z"/>
		</g>
		<g>
			<path class="st2" d="M295.75,122.49v-5.61c0-0.65-0.18-1.15-0.53-1.5c-0.35-0.35-0.79-0.53-1.33-0.53
				c-0.56,0-1.01,0.18-1.36,0.53c-0.35,0.35-0.52,0.85-0.52,1.5v5.61h-1.89v-9.42h1.89v1h0.04c0.6-0.74,1.41-1.12,2.45-1.12
				c0.37,0,0.74,0.07,1.11,0.21c0.37,0.14,0.71,0.35,1.01,0.62c0.3,0.27,0.54,0.61,0.73,1.02c0.19,0.41,0.29,0.88,0.29,1.41v6.27
				H295.75z"/>
		</g>
		<g>
			<path class="st2" d="M301.53,118.49c0,0.78,0.21,1.36,0.62,1.75c0.42,0.39,0.96,0.58,1.63,0.58c0.36,0,0.72-0.08,1.09-0.24
				c0.36-0.16,0.69-0.38,0.97-0.67l1.38,1.17c-0.47,0.56-1,0.95-1.58,1.18c-0.58,0.23-1.19,0.34-1.82,0.34
				c-0.48,0-0.97-0.07-1.47-0.2c-0.5-0.14-0.95-0.39-1.35-0.74c-0.4-0.36-0.73-0.85-0.99-1.47c-0.25-0.62-0.38-1.41-0.38-2.38
				c0-0.92,0.12-1.69,0.35-2.3c0.23-0.62,0.54-1.12,0.91-1.5c0.37-0.38,0.79-0.65,1.25-0.81c0.46-0.16,0.92-0.24,1.38-0.24
				c0.52,0,1.02,0.09,1.49,0.28c0.47,0.19,0.88,0.45,1.23,0.8c0.36,0.35,0.64,0.77,0.85,1.26c0.21,0.49,0.32,1.04,0.32,1.65v1.56
				H301.53z M305.5,116.93c-0.03-0.72-0.22-1.26-0.59-1.63c-0.37-0.37-0.84-0.56-1.4-0.56c-0.56,0-1.02,0.18-1.4,0.56
				c-0.37,0.37-0.57,0.92-0.59,1.63H305.5z"/>
		</g>
		<g>
			<path class="st2" d="M311.79,122.49c-0.67,0-1.22-0.2-1.65-0.6c-0.43-0.41-0.64-0.98-0.64-1.72v-5.65h-0.95v-1.45h0.95v-2.86
				h1.89v2.86h1.38v1.45h-1.38v5.48c0,0.26,0.06,0.44,0.16,0.55c0.1,0.1,0.28,0.16,0.51,0.16h0.71v1.79H311.79z"/>
		</g>
	</g>
	<g>
		<g>
			<path class="st2" d="M232.39,113.08c1.09,0,1.75,0.57,1.75,1.52c0,0.95-0.66,1.52-1.75,1.52h-0.63v1.4h-1.07v-4.44H232.39z
				 M232.37,115.13c0.41,0,0.66-0.2,0.66-0.53c0-0.33-0.25-0.52-0.66-0.52h-0.61v1.05H232.37z"/>
		</g>
		<g>
			<path class="st2" d="M236.58,113c1.28,0,2.31,0.97,2.31,2.31c0,1.34-1.03,2.31-2.31,2.31c-1.27,0-2.3-0.97-2.3-2.31
				C234.28,113.96,235.31,113,236.58,113z M236.58,116.56c0.73,0,1.2-0.52,1.2-1.26c0-0.75-0.48-1.26-1.2-1.26
				c-0.71,0-1.19,0.51-1.19,1.26C235.39,116.05,235.86,116.56,236.58,116.56z"/>
		</g>
		<g>
			<path class="st2" d="M245.19,113.08l-1.35,4.44h-1l-0.66-2.05c-0.14-0.44-0.19-0.75-0.2-0.75h-0.01c-0.01,0-0.06,0.31-0.2,0.75
				l-0.66,2.05h-1l-1.35-4.44h1.14l0.55,2.09c0.11,0.42,0.17,0.72,0.18,0.72h0.01c0.01,0,0.08-0.3,0.23-0.72l0.62-1.68h1l0.62,1.68
				c0.15,0.42,0.22,0.72,0.23,0.72h0.01c0.01,0,0.07-0.3,0.18-0.72l0.55-2.09H245.19z"/>
		</g>
		<g>
			<path class="st2" d="M248.75,116.53v1h-3.27v-4.44h3.23v1h-2.16v0.73h1.69v0.93h-1.69v0.79H248.75z"/>
		</g>
		<g>
			<path class="st2" d="M251.85,117.53l-0.82-1.45h-0.55v1.45h-1.07v-4.44h1.66c1.12,0,1.79,0.61,1.79,1.52
				c0,0.6-0.29,1.04-0.8,1.28l0.98,1.64H251.85z M250.48,115.13h0.74c0.38,0,0.53-0.29,0.53-0.53c0-0.24-0.15-0.52-0.53-0.52h-0.74
				V115.13z"/>
		</g>
		<g>
			<path class="st2" d="M256.72,116.53v1h-3.27v-4.44h3.23v1h-2.17v0.73h1.7v0.93h-1.7v0.79H256.72z"/>
		</g>
		<g>
			<path class="st2" d="M259.33,113.08c1.27,0,2.3,0.91,2.3,2.24c0,1.33-1.03,2.2-2.3,2.2h-1.94v-4.44H259.33z M259.33,116.53
				c0.63,0,1.19-0.44,1.19-1.2c0-0.76-0.55-1.24-1.19-1.24h-0.87v2.45H259.33z"/>
		</g>
		<g>
			<path class="st2" d="M265.31,113.08c0.79,0,1.35,0.53,1.35,1.17c0,0.42-0.29,0.78-0.56,0.87v0.01c0.42,0.11,0.78,0.6,0.78,1.05
				c0,0.74-0.49,1.35-1.59,1.35h-1.92v-4.44H265.31z M265.09,114.82c0.29,0,0.49-0.18,0.49-0.42c0-0.24-0.21-0.42-0.49-0.42h-0.64
				v0.84H265.09z M265.19,116.63c0.36,0,0.58-0.21,0.58-0.5c0-0.31-0.24-0.5-0.58-0.5h-0.74v1H265.19z"/>
		</g>
		<g>
			<path class="st2" d="M271.08,113.08l-1.7,2.48v1.97h-1.06v-1.97l-1.7-2.48h1.19l0.8,1.19c0.13,0.19,0.22,0.32,0.23,0.32h0.01
				c0.01,0,0.1-0.13,0.23-0.32l0.81-1.19H271.08z"/>
		</g>
	</g>
</g>
</svg>
